<svg width="43" height="50" viewBox="0 0 43 50" fill="none" xmlns="http://www.w3.org/2000/svg">
<path d="M41.5601 7.28189C34.2782 6.92668 27.7067 4.44018 21.8457 0.355214L21.3129 0L20.78 0.355214C14.919 4.44018 8.34754 6.92668 1.06564 7.28189H0V23.7994C0 36.0543 8.70275 46.8883 21.1353 49.73H21.4905C33.923 46.8883 42.6257 36.0543 42.6257 23.7994V7.28189H41.5601ZM33.5678 19.004L20.78 32.6797C20.4248 33.2125 19.892 33.7454 19.1816 33.7454C18.4711 33.7454 17.9383 33.3901 17.5831 32.6797L9.05796 23.7994C8.52514 23.4441 8.16993 23.0889 8.16993 22.3785C8.16993 21.4905 8.88036 20.78 9.76839 20.78C10.3012 20.78 10.834 21.1353 11.1893 21.6681L19.1816 30.0156H19.3592L31.6141 17.0503C31.7917 16.5175 32.3245 16.1623 33.0349 16.1623C33.923 16.1623 34.6334 16.8727 34.6334 17.7607C34.4558 18.2935 34.1006 18.6488 33.5678 19.004Z" fill="#10B981"/>
</svg>