<svg width="43" height="50" viewBox="0 0 43 50" fill="none" xmlns="http://www.w3.org/2000/svg">
<path fill-rule="evenodd" clip-rule="evenodd" d="M21.8457 0.355214C27.7067 4.44018 34.2782 6.92668 41.5601 7.28189H42.6257V23.7994C42.6257 36.0543 33.923 46.8883 21.4905 49.73H21.1353C8.70275 46.8883 0 36.0543 0 23.7994V7.28189H1.06564C8.34754 6.92668 14.919 4.44018 20.78 0.355214L21.3129 0L21.8457 0.355214ZM26.1988 13.4775C26.1369 13.3195 26.0233 13.1871 25.8765 13.102V13.1005C25.7301 13.0156 25.5592 12.9827 25.3917 13.0072C25.2242 13.0318 25.07 13.1122 24.954 13.2355L12.954 25.9855C12.8535 26.0921 12.7864 26.2258 12.7611 26.37C12.7357 26.5143 12.7531 26.6628 12.8111 26.7973C12.8692 26.9318 12.9654 27.0463 13.0878 27.1268C13.2102 27.2072 13.3535 27.2501 13.5 27.25H18.4845L15.783 36.0295C15.733 36.1914 15.7394 36.3656 15.801 36.5234C15.8626 36.6813 15.9759 36.8137 16.1224 36.8989C16.2689 36.9842 16.4399 37.0173 16.6077 36.9929C16.7754 36.9685 16.9299 36.888 17.046 36.7645L29.046 24.0145C29.1465 23.9079 29.2136 23.7742 29.239 23.63C29.2643 23.4857 29.2469 23.3372 29.1889 23.2027C29.1308 23.0682 29.0346 22.9537 28.9122 22.8732C28.7898 22.7928 28.6465 22.7499 28.5 22.75H23.5155L26.217 13.972C26.267 13.8099 26.2606 13.6355 26.1988 13.4775Z" fill="#6366F1"/>
</svg>
